<?xml version="1.0" encoding="UTF-8"?>
<svg version="1.1" xmlns="http://www.w3.org/2000/svg" width="500" height="500">
<path d="M0 0 C2.65452606 -0.01528198 5.30824856 -0.04145174 7.96270752 -0.07305908 C27.65604779 -0.29603685 45.86476517 0.85472705 64.35647583 8.09860229 C65.26631226 8.44262085 66.17614868 8.7866394 67.11355591 9.14108276 C100.77881402 22.02257796 127.21746041 39.63414974 142.25881958 73.31442261 C154.96462493 102.86859426 154.62235457 138.30313911 142.98196411 168.14547729 C132.44740859 193.90314122 115.15460643 213.74499745 90.10647583 226.28610229 C89.08682739 226.80172729 88.06717896 227.31735229 87.01663208 227.84860229 C72.8701088 234.70752267 58.56146981 237.35999325 43.10647583 239.28610229 C42.4017514 239.37438293 41.69702698 239.46266357 40.97094727 239.55361938 C33.3674189 240.40874734 25.77411587 240.50826449 18.12991333 240.60250854 C16.70930446 240.62312826 15.28870103 240.64412585 13.86810303 240.66548157 C10.16273456 240.72018502 6.4573156 240.76981818 2.75186157 240.81832886 C-1.04273879 240.86892625 -4.83726752 240.92441091 -8.63180542 240.97946167 C-16.05231735 241.08640866 -23.47288961 241.18798937 -30.89352417 241.28610229 C-30.89260238 241.8408618 -30.89168058 242.3956213 -30.89073086 242.9671917 C-30.868665 256.45373486 -30.8521712 269.94027487 -30.841712 283.4268322 C-30.83648459 289.94877671 -30.82938949 296.47070823 -30.81808472 302.99264526 C-30.80725083 309.28199517 -30.80124626 315.57133255 -30.79864693 321.86069107 C-30.79679359 324.26495689 -30.79317471 326.669222 -30.78779411 329.07348251 C-30.78057707 332.43066664 -30.77953351 335.78779843 -30.77999878 339.14498901 C-30.7764035 340.14767822 -30.77280823 341.15036743 -30.769104 342.18344116 C-30.77047867 343.09491913 -30.77185333 344.00639709 -30.77326965 344.94549561 C-30.77234786 345.74008116 -30.77142607 346.53466671 -30.77047634 347.35333061 C-30.89352417 349.28610229 -30.89352417 349.28610229 -31.89352417 351.28610229 C-38.52639671 350.12244045 -44.40163356 348.01727928 -50.57540894 345.40670776 C-56.22744398 343.04053312 -60.89973618 342.15687387 -67.01315308 342.20431519 C-68.22435822 342.2108461 -69.43556335 342.21737701 -70.68347168 342.22410583 C-72.6320961 342.24125893 -72.6320961 342.24125893 -74.62008667 342.25875854 C-75.97338512 342.26570847 -77.32668756 342.27191768 -78.67999268 342.27742004 C-84.41335605 342.30180999 -90.14661065 342.33754854 -95.87985229 342.38204956 C-99.39338856 342.40881888 -102.90686349 342.42586803 -106.42048264 342.43691826 C-108.40752718 342.44614222 -110.39450976 342.46652262 -112.38146973 342.48704529 C-113.58637054 342.49042404 -114.79127136 342.4938028 -116.03268433 342.49728394 C-117.09459991 342.50474136 -118.1565155 342.51219879 -119.25061035 342.5198822 C-121.89352417 342.28610229 -121.89352417 342.28610229 -124.89352417 340.28610229 C-125.26842099 337.8855648 -125.26842099 337.8855648 -125.26825428 334.79815674 C-125.27906409 333.03840232 -125.27906409 333.03840232 -125.29009229 331.24309731 C-125.282718 329.9429286 -125.27534372 328.6427599 -125.26774597 327.30319214 C-125.27048413 325.91695538 -125.27453411 324.53072069 -125.27978963 323.1444912 C-125.29042118 319.32186157 -125.28221881 315.49946424 -125.27103913 311.6768446 C-125.26222689 307.55954637 -125.27063198 303.44227954 -125.27690125 299.32498169 C-125.28640874 291.25393299 -125.2797724 283.18297343 -125.2676383 275.11193132 C-125.25404439 265.72147177 -125.25565385 256.33103367 -125.25777163 246.94056678 C-125.26096437 230.19049255 -125.24927752 213.4404608 -125.22970581 196.69039917 C-125.21070044 180.42085476 -125.20361791 164.15136014 -125.209198 147.88180542 C-125.21525 130.18386621 -125.21508936 112.48594893 -125.20371217 94.78801155 C-125.20250482 92.90238571 -125.20129883 91.01675987 -125.20009422 89.13113403 C-125.19949068 88.20326438 -125.19888715 87.27539473 -125.19826532 86.31940782 C-125.19437903 79.76702336 -125.19478254 73.21464703 -125.19668007 66.66226196 C-125.19879789 58.68183223 -125.19360937 50.7014462 -125.17906652 42.7210288 C-125.17180172 38.64591147 -125.16776316 34.57085793 -125.17230988 30.49573517 C-125.17636563 26.77014149 -125.17128023 23.04467991 -125.1586838 19.31910634 C-125.1543369 17.32244336 -125.1598692 15.32576656 -125.16567308 13.32910728 C-125.15984088 12.15593767 -125.15400869 10.98276806 -125.14799976 9.77404785 C-125.14713299 8.75520319 -125.14626621 7.73635853 -125.14537317 6.68663979 C-124.89352417 4.28610229 -124.89352417 4.28610229 -122.89352417 2.28610229 C-120.57273865 2.01435852 -120.57273865 2.01435852 -117.62228394 1.98312378 C-115.95795822 1.95810791 -115.95795822 1.95810791 -114.26000977 1.93258667 C-113.04723358 1.92420776 -111.8344574 1.91582886 -110.58493042 1.90719604 C-109.32945404 1.8905188 -108.07397766 1.87384155 -106.78045654 1.85665894 C-104.08021308 1.82178038 -101.38019344 1.79032398 -98.67987061 1.76483154 C-92.31837507 1.7046263 -85.95722576 1.61717265 -79.59601784 1.53248787 C-77.4973359 1.50488188 -75.39864108 1.47849233 -73.29994202 1.45222473 C-63.63738748 1.32830566 -53.98753119 1.0732601 -44.33102417 0.72360229 C-29.55798418 0.25324315 -14.77979271 0.08172255 0 0 Z M-30.89352417 81.28610229 C-32.12270417 88.94070786 -32.03903054 96.55826129 -32.02633667 104.29391479 C-32.02701149 105.74784359 -32.02798299 107.20177227 -32.02923584 108.65570068 C-32.0307035 111.68990156 -32.02858772 114.72407284 -32.02389526 117.75827026 C-32.01818831 121.63614307 -32.021489 125.51394679 -32.02746773 129.39181709 C-32.03108985 132.38932817 -32.02992734 135.38682299 -32.02733994 138.38433456 C-32.02667577 139.81399417 -32.02748116 141.24365529 -32.02981949 142.67331314 C-32.0323743 144.67331156 -32.02778653 146.6733152 -32.0229187 148.67330933 C-32.02212311 149.80833893 -32.02132751 150.94336853 -32.02050781 152.11279297 C-31.89497573 155.24982799 -31.47950985 158.20472426 -30.89352417 161.28610229 C-25.50821841 161.36146179 -20.1232337 161.41526169 -14.73751831 161.45089722 C-12.91357056 161.46578593 -11.08965728 161.48610364 -9.26583862 161.51242065 C9.85440851 161.78097824 27.26220733 161.40699094 41.77835083 147.69235229 C50.66827634 138.50410714 54.20962988 127.51162923 54.60647583 114.78610229 C54.25328919 103.46058416 51.4020927 93.09920747 44.10647583 84.28610229 C43.45872192 83.48752808 43.45872192 83.48752808 42.79788208 82.67282104 C38.4987166 79.14810108 33.2920801 79.0302073 27.95413208 79.02047729 C26.92633636 79.01651947 26.92633636 79.01651947 25.8777771 79.01248169 C23.64132595 79.00865226 21.40537623 79.02133684 19.16897583 79.03610229 C18.02336685 79.03876099 18.02336685 79.03876099 16.85461426 79.04147339 C0.88830938 79.08472729 -14.98233139 80.01062879 -30.89352417 81.28610229 Z " fill="#303136" transform="translate(247.89352416992188,73.71389770507813)"/>
<path d="M0 0 C14.15788036 2.79348312 27.99323119 19.46857208 35.67578125 30.87109375 C54.30677054 59.55994358 59.38632265 93.18582423 52.54345703 126.62548828 C46.01550024 155.14790868 29.84353614 181.08292923 5 197 C1.40599625 199.16164897 -2.2503447 201.12262156 -6 203 C-7.01964844 203.515625 -8.03929687 204.03125 -9.08984375 204.5625 C-23.23636703 211.42142038 -37.54500602 214.07389095 -53 216 C-53.70472443 216.08828064 -54.40944885 216.17656128 -55.13552856 216.26751709 C-62.73905693 217.12264505 -70.33235996 217.22216219 -77.9765625 217.31640625 C-79.39717137 217.33702597 -80.8177748 217.35802356 -82.2383728 217.37937927 C-85.94374127 217.43408273 -89.64916023 217.48371588 -93.35461426 217.53222656 C-97.14921462 217.58282395 -100.94374335 217.63830862 -104.73828125 217.69335938 C-112.15879318 217.80030636 -119.57936544 217.90188708 -127 218 C-126.99907821 218.5547595 -126.99815641 219.109519 -126.99720669 219.6810894 C-126.97514083 233.16763256 -126.95864703 246.65417257 -126.94818783 260.1407299 C-126.94296042 266.66267442 -126.93586532 273.18460594 -126.92456055 279.70654297 C-126.91372666 285.99589288 -126.90772209 292.28523026 -126.90512276 298.57458878 C-126.90326942 300.9788546 -126.89965054 303.3831197 -126.89426994 305.78738022 C-126.8870529 309.14456434 -126.88600934 312.50169614 -126.88647461 315.85888672 C-126.88287933 316.86157593 -126.87928406 317.86426514 -126.87557983 318.89733887 C-126.8769545 319.80881683 -126.87832916 320.7202948 -126.87974548 321.65939331 C-126.87882369 322.45397886 -126.8779019 323.24856441 -126.87695217 324.06722832 C-127 326 -127 326 -128 328 C-134.63287254 326.83633815 -140.50810939 324.73117699 -146.68188477 322.12060547 C-152.33391981 319.75443083 -157.00621201 318.87077158 -163.11962891 318.91821289 C-164.33083405 318.9247438 -165.54203918 318.93127472 -166.78994751 318.93800354 C-168.73857193 318.95515663 -168.73857193 318.95515663 -170.7265625 318.97265625 C-172.07986095 318.97960617 -173.43316339 318.98581538 -174.78646851 318.99131775 C-180.51983188 319.01570769 -186.25308648 319.05144624 -191.98632812 319.09594727 C-195.49986439 319.12271659 -199.01333932 319.13976573 -202.52695847 319.15081596 C-204.51400301 319.16003992 -206.50098559 319.18042032 -208.48794556 319.20094299 C-209.69284637 319.20432175 -210.89774719 319.2077005 -212.13916016 319.21118164 C-213.20107574 319.21863907 -214.26299133 319.2260965 -215.35708618 319.23377991 C-218 319 -218 319 -221 317 C-221.37259549 314.9754709 -221.37259549 314.9754709 -221.36914349 312.42789268 C-221.37511663 311.45901001 -221.38108978 310.49012734 -221.38724393 309.49188459 C-221.3785054 308.41991759 -221.36976688 307.3479506 -221.36076355 306.24349976 C-221.36332682 305.1106469 -221.3658901 303.97779405 -221.36853105 302.81061232 C-221.3734993 298.98867147 -221.35692564 295.16711972 -221.34057617 291.34521484 C-221.33806311 288.61588794 -221.34007144 285.88656881 -221.34190369 283.15724182 C-221.34347912 277.26787614 -221.33404178 271.37860992 -221.31719017 265.48926926 C-221.29284123 256.97421762 -221.28499912 248.45921424 -221.2812262 239.94413157 C-221.27465525 226.1300448 -221.25467667 212.31601108 -221.22631836 198.50195312 C-221.19879441 185.08040635 -221.1775527 171.65887397 -221.16479492 158.23730469 C-221.16400675 157.41043236 -221.16321858 156.58356003 -221.16240653 155.73163097 C-221.1584915 151.58358459 -221.15470036 147.43553811 -221.15097082 143.28749156 C-221.11985488 108.85828952 -221.06700162 74.42915047 -221 40 C-220.67 40 -220.34 40 -220 40 C-220 130.75 -220 221.5 -220 315 C-215.59109559 310.59109559 -211.8259579 306.11302543 -207.98828125 301.23046875 C-207.33214844 300.49441406 -206.67601562 299.75835937 -206 299 C-205.34 299 -204.68 299 -204 299 C-203.79375 298.278125 -203.5875 297.55625 -203.375 296.8125 C-201.60768726 293.19754213 -199.09827794 291.51735083 -196 289 C-194.76487921 286.86690808 -194.76487921 286.86690808 -194 285 C-193.34 284.67 -192.68 284.34 -192 284 C-192.00037972 283.45576106 -192.00075944 282.91152212 -192.00115067 282.3507911 C-192.02354171 250.07567713 -192.04069311 217.80056523 -192.05106533 185.52544529 C-192.052316 181.64782289 -192.05361032 177.7702005 -192.05493164 173.89257812 C-192.05519395 173.120632 -192.05545626 172.34868588 -192.05572652 171.55334745 C-192.06007466 159.06353828 -192.06795751 146.57373373 -192.0771528 134.08392729 C-192.08651313 121.26275859 -192.09206065 108.44159231 -192.09408849 95.62042034 C-192.09545877 87.71275636 -192.09978258 79.80510544 -192.10791647 71.89744548 C-192.11384055 65.8279779 -192.11445293 59.75852148 -192.11310768 53.68905067 C-192.11338247 51.20346178 -192.11536726 48.71787239 -192.11920547 46.23228645 C-192.12419617 42.83323521 -192.12297847 39.43423935 -192.12025452 36.03518677 C-192.12316736 35.05655957 -192.1260802 34.07793238 -192.12908131 33.06964982 C-192.11595365 26.98986756 -191.71967339 21.03706038 -191 15 C-190.67 15 -190.34 15 -190 15 C-189.67 80.34 -189.34 145.68 -189 213 C-189 200.46 -189 187.92 -189 175 C-184.71 175 -180.42 175 -176 175 C-176 175.33 -176 175.66 -176 176 C-179.63 176 -183.26 176 -187 176 C-187 176.66 -187 177.32 -187 178 C-186.443125 178.226875 -185.88625 178.45375 -185.3125 178.6875 C-182.33840412 180.37550036 -180.27991135 182.46676517 -178 185 C-178 185.66 -178 186.32 -178 187 C-177.319375 187.20625 -176.63875 187.4125 -175.9375 187.625 C-172.08360625 189.42895027 -168.92212236 191.9010345 -166 195 C-166 195.66 -166 196.32 -166 197 C-165.401875 197.28875 -164.80375 197.5775 -164.1875 197.875 C-160.55207841 199.74464539 -158.1073214 201.49900411 -156 205 C-155.55175781 207.71386719 -155.55175781 207.71386719 -155.453125 210.796875 C-155.41316406 211.9209375 -155.37320313 213.045 -155.33203125 214.203125 C-155.30496094 215.37359375 -155.27789062 216.5440625 -155.25 217.75 C-155.18619141 219.4825 -155.18619141 219.4825 -155.12109375 221.25 C-154.93474116 227.29610634 -155.02902052 233.02700501 -156 239 C-155.34 239 -154.68 239 -154 239 C-153.67 229.76 -153.34 220.52 -153 211 C-153.66 210.67 -154.32 210.34 -155 210 C-154.67 208.68 -154.34 207.36 -154 206 C-123.66709003 204.80611597 -123.66709003 204.80611597 -111 205 C-111 205.66 -111 206.32 -111 207 C-109.35 207 -107.7 207 -106 207 C-106 206.34 -106 205.68 -106 205 C-104.95360352 204.96036133 -103.90720703 204.92072266 -102.82910156 204.87988281 C-71.4341236 203.94300538 -71.4341236 203.94300538 -41.0715332 196.58374023 C-39 196 -39 196 -35 196 C-35 195.34 -35 194.68 -35 194 C-33.02 193.34 -31.04 192.68 -29 192 C-29 190.68 -29 189.36 -29 188 C-29.68707031 188.433125 -30.37414062 188.86625 -31.08203125 189.3125 C-31.98308594 189.869375 -32.88414062 190.42625 -33.8125 191 C-34.70582031 191.556875 -35.59914063 192.11375 -36.51953125 192.6875 C-39 194 -39 194 -42 194 C-42 193.34 -42 192.68 -42 192 C-41.25234375 191.60167969 -40.5046875 191.20335937 -39.734375 190.79296875 C-38.74953125 190.26316406 -37.7646875 189.73335937 -36.75 189.1875 C-35.77546875 188.66542969 -34.8009375 188.14335937 -33.796875 187.60546875 C-31.36035433 186.20685144 -29.23623216 184.68641475 -27 183 C-26.37351562 182.7009375 -25.74703125 182.401875 -25.1015625 182.09375 C-22.20507911 180.58628652 -19.88444752 178.58331492 -17.375 176.5 C-15.93253906 175.30890625 -15.93253906 175.30890625 -14.4609375 174.09375 C-12.02174771 172.07531891 -12.02174771 172.07531891 -10 170 C-9.01 170 -8.02 170 -7 170 C-6.896875 169.4225 -6.79375 168.845 -6.6875 168.25 C-5.89103535 165.64338842 -4.80934723 164.0264689 -3 162 C-2.34 162 -1.68 162 -1 162 C-0.67 161.01 -0.34 160.02 0 159 C0.37125 158.319375 0.7425 157.63875 1.125 156.9375 C1.41375 156.298125 1.7025 155.65875 2 155 C1.67 154.34 1.34 153.68 1 153 C1.9075 152.54625 2.815 152.0925 3.75 151.625 C8.24754892 148.70479051 9.41248637 143.8932773 11 139 C11.66 139 12.32 139 13 139 C13.33 137.68 13.66 136.36 14 135 C14.66 135 15.32 135 16 135 C15.96261719 134.28328125 15.92523438 133.5665625 15.88671875 132.828125 C16.00986173 129.75379669 16.67404183 127.59827736 17.8125 124.75 C18.14894531 123.87859375 18.48539063 123.0071875 18.83203125 122.109375 C20 120 20 120 23 119 C23.16681109 116.08347826 23.16681109 116.08347826 23 113 C22.34 112.34 21.68 111.68 21 111 C21.66 111 22.32 111 23 111 C23 108.69 23 106.38 23 104 C23.99 104.33 24.98 104.66 26 105 C25.67636475 104.44256104 25.35272949 103.88512207 25.01928711 103.31079102 C23.86783784 100.70037967 23.73199111 98.87067149 23.69140625 96.02734375 C23.66860596 95.05474609 23.64580566 94.08214844 23.62231445 93.08007812 C23.5927063 91.52450195 23.5927063 91.52450195 23.5625 89.9375 C22.90902177 69.67205861 19.68787664 52.14758182 10.078125 34.11328125 C7.93111841 29.90483718 6.46011503 25.48463903 5 21 C18.71636104 34.05190064 24.50855781 52.9394897 27.75878906 71.12158203 C28.11718637 73.09192788 28.55138749 75.04821666 29 77 C29.66 77.33 30.32 77.66 31 78 C31.4140625 80.94140625 31.4140625 80.94140625 31.625 84.5625 C31.73714844 86.35880859 31.73714844 86.35880859 31.8515625 88.19140625 C31.90054688 89.11824219 31.94953125 90.04507813 32 91 C32.02699725 88.72923158 32.04639453 86.45837179 32.0625 84.1875 C32.07990234 82.29064453 32.07990234 82.29064453 32.09765625 80.35546875 C32.16159116 77.00394763 32.16159116 77.00394763 31 74 C31 72 31 70 31 68 C29.99296002 60.80685727 27.78035946 54.67790264 25 48 C24.74943848 47.38979004 24.49887695 46.77958008 24.24072266 46.15087891 C18.59726252 32.47334969 11.56729381 21.35342445 2 10 C0.66189741 8.33715995 -0.67288661 6.67162364 -2 5 C-0.35 4.67 1.3 4.34 3 4 C2.01 3.34 1.02 2.68 0 2 C0 1.34 0 0.68 0 0 Z " fill="#121418" transform="translate(344,97)"/>
<path d="M0 0 C1.50215598 -0.00739959 3.00430028 -0.01798384 4.50640869 -0.03204346 C12.08510623 -0.09757903 19.28728105 -0.02859396 26.59854126 2.17623901 C27.74838501 2.50881714 28.89822876 2.84139526 30.08291626 3.18405151 C43.00266531 7.60396566 56.73909984 14.53262209 64.59854126 26.17623901 C65.84854126 29.48873901 65.84854126 29.48873901 66.59854126 32.17623901 C67.25854126 32.17623901 67.91854126 32.17623901 68.59854126 32.17623901 C77.28414573 44.24195557 80.7454921 57.30030763 80.76651001 71.96139526 C80.76983841 72.7807103 80.77316681 73.60002533 80.77659607 74.44416809 C80.78163132 76.16613203 80.78400545 77.88810561 80.78384399 79.6100769 C80.78603772 82.23450774 80.80424918 84.85852256 80.82315063 87.48287964 C80.82608389 89.16321676 80.82806914 90.84355585 80.82901001 92.52389526 C80.83619553 93.30217178 80.84338104 94.0804483 80.8507843 94.88230896 C80.83206553 99.37086135 80.29399477 102.94579482 78.59854126 107.17623901 C77.93854126 106.84623901 77.27854126 106.51623901 76.59854126 106.17623901 C76.26854126 106.83623901 75.93854126 107.49623901 75.59854126 108.17623901 C76.25854126 108.17623901 76.91854126 108.17623901 77.59854126 108.17623901 C76.98576514 111.13799024 76.34481604 112.55682684 74.59854126 115.17623901 C74.26854126 114.84623901 73.93854126 114.51623901 73.59854126 114.17623901 C71.30809112 118.98833802 71.30809112 118.98833802 70.59854126 124.17623901 C68.46080199 128.52180737 65.93146778 132.78565886 61.59854126 135.17623901 C60.93854126 135.17623901 60.27854126 135.17623901 59.59854126 135.17623901 C58.93854126 135.52686401 58.27854126 135.87748901 57.59854126 136.23873901 C56.93854126 136.54811401 56.27854126 136.85748901 55.59854126 137.17623901 C54.93854126 136.84623901 54.27854126 136.51623901 53.59854126 136.17623901 C53.47479126 137.14561401 53.35104126 138.11498901 53.22354126 139.11373901 C53.01729126 140.12436401 52.81104126 141.13498901 52.59854126 142.17623901 C51.93854126 142.50623901 51.27854126 142.83623901 50.59854126 143.17623901 C51.25854126 143.83623901 51.91854126 144.49623901 52.59854126 145.17623901 C48.79914256 148.79892149 48.79914256 148.79892149 46.59854126 150.17623901 C43.84854126 149.86373901 43.84854126 149.86373901 41.59854126 149.17623901 C40.93854126 149.83623901 40.27854126 150.49623901 39.59854126 151.17623901 C37.91092268 151.77935516 36.1983965 152.31474138 34.47354126 152.80123901 C33.56346313 153.06162964 32.65338501 153.32202026 31.71572876 153.59030151 C30.66772095 153.88034058 30.66772095 153.88034058 29.59854126 154.17623901 C31.57854126 155.16623901 31.57854126 155.16623901 33.59854126 156.17623901 C31.61854126 157.16623901 31.61854126 157.16623901 29.59854126 158.17623901 C28.11354126 157.18623901 28.11354126 157.18623901 26.59854126 156.17623901 C26.59854126 156.83623901 26.59854126 157.49623901 26.59854126 158.17623901 C25.27854126 157.84623901 23.95854126 157.51623901 22.59854126 157.17623901 C22.59854126 156.51623901 22.59854126 155.85623901 22.59854126 155.17623901 C21.93854126 155.17623901 21.27854126 155.17623901 20.59854126 155.17623901 C20.59854126 156.16623901 20.59854126 157.15623901 20.59854126 158.17623901 C21.58854126 158.50623901 22.57854126 158.83623901 23.59854126 159.17623901 C16.97354126 160.42623901 16.97354126 160.42623901 13.59854126 158.17623901 C13.92854126 159.16623901 14.25854126 160.15623901 14.59854126 161.17623901 C12.28854126 161.17623901 9.97854126 161.17623901 7.59854126 161.17623901 C7.59854126 160.84623901 7.59854126 160.51623901 7.59854126 160.17623901 C1.65854126 160.17623901 -4.28145874 160.17623901 -10.40145874 160.17623901 C-8.91645874 161.16623901 -8.91645874 161.16623901 -7.40145874 162.17623901 C-22.91145874 162.17623901 -38.42145874 162.17623901 -54.40145874 162.17623901 C-54.40145874 161.84623901 -54.40145874 161.51623901 -54.40145874 161.17623901 C-58.69145874 160.84623901 -62.98145874 160.51623901 -67.40145874 160.17623901 C-67.40145874 160.83623901 -67.40145874 161.49623901 -67.40145874 162.17623901 C-69.6710106 162.39809745 -71.94219629 162.60329416 -74.21395874 162.80123901 C-75.47852905 162.91725464 -76.74309937 163.03327026 -78.04598999 163.15280151 C-81.40145874 163.17623901 -81.40145874 163.17623901 -84.40145874 161.17623901 C-86.05695405 160.7912401 -87.72370204 160.44830767 -89.40145874 160.17623901 C-89.07145874 158.52623901 -88.74145874 156.87623901 -88.40145874 155.17623901 C-87.74145874 155.17623901 -87.08145874 155.17623901 -86.40145874 155.17623901 C-86.33958374 154.61936401 -86.27770874 154.06248901 -86.21395874 153.48873901 C-85.04793772 150.1700638 -82.98524111 148.52513207 -80.40145874 146.17623901 C-79.61770874 145.41311401 -78.83395874 144.64998901 -78.02645874 143.86373901 C-74.65777562 141.69815701 -72.32868613 141.86822118 -68.40145874 142.17623901 C-68.40145874 141.18623901 -68.40145874 140.19623901 -68.40145874 139.17623901 C-69.06145874 138.51623901 -69.72145874 137.85623901 -70.40145874 137.17623901 C-69.47333374 136.90811401 -68.54520874 136.63998901 -67.58895874 136.36373901 C-64.4443323 135.50200106 -64.4443323 135.50200106 -63.15023804 133.61813354 C-60.36554469 131.32211248 -57.77235604 131.85864911 -54.23348999 131.91842651 C-53.52101608 131.92504303 -52.80854218 131.93165955 -52.07447815 131.93847656 C-49.7871992 131.96186461 -47.50088847 132.00538941 -45.21395874 132.05123901 C-42.24137148 132.09845887 -39.26878213 132.13672325 -36.29598999 132.16842651 C-35.18640175 132.18090424 -35.18640175 132.18090424 -34.05439758 132.19363403 C-27.68866251 132.23583636 -21.39012834 131.8862986 -15.04232788 131.43453979 C-11.83487534 131.20698767 -8.63337727 131.031334 -5.42098999 130.89498901 C-4.54765015 130.8576062 -3.6743103 130.82022339 -2.77450562 130.78170776 C-1.0245775 130.70962834 0.7254276 130.63940033 2.47549438 130.57077026 C6.61157292 130.39080586 10.5611136 130.17932663 14.59854126 129.17623901 C13.75597778 129.33922485 12.91341431 129.50221069 12.0453186 129.6701355 C8.4564978 130.1970958 5.0761278 130.28939109 1.45010376 130.27389526 C0.46401627 130.27177284 0.46401627 130.27177284 -0.54199219 130.26960754 C-2.62019605 130.26405664 -4.69828801 130.25151367 -6.77645874 130.23873901 C-8.19442592 130.23371765 -9.61239481 130.22915586 -11.03036499 130.22506714 C-14.48743196 130.21410338 -17.94443441 130.19687323 -21.40145874 130.17623901 C-21.40145874 129.84623901 -21.40145874 129.51623901 -21.40145874 129.17623901 C-20.76643433 129.15641968 -20.13140991 129.13660034 -19.47714233 129.11618042 C-16.57652548 129.02042779 -13.67657969 128.91095355 -10.77645874 128.80123901 C-9.27792358 128.75483276 -9.27792358 128.75483276 -7.74911499 128.70748901 C-2.62413773 128.50384753 1.80123043 128.19012718 6.59854126 126.17623901 C6.26854126 125.51623901 5.93854126 124.85623901 5.59854126 124.17623901 C6.73291626 124.00608276 7.86729126 123.83592651 9.03604126 123.66061401 C23.40575772 121.40035246 32.40721874 117.72281684 42.20401001 106.30514526 C49.25875243 96.21143687 50.8216247 83.13250362 49.59854126 71.17623901 C47.8350476 61.68507651 44.93503997 52.14758689 36.91104126 46.17623901 C32.54458331 44.28804098 28.85920503 44.02994434 24.17666626 44.04342651 C23.07110382 44.04199142 23.07110382 44.04199142 21.94320679 44.04052734 C20.37633174 44.0398464 18.80945387 44.04169474 17.24258423 44.04586792 C14.89892814 44.05112597 12.55547189 44.0459684 10.21182251 44.03952026 C3.10129106 44.03669069 -3.94691343 44.15648105 -11.04208374 44.68405151 C-18.81291102 45.20375652 -26.61327218 45.17623901 -34.40145874 45.17623901 C-34.40145874 71.57623901 -34.40145874 97.97623901 -34.40145874 125.17623901 C-27.47145874 125.17623901 -20.54145874 125.17623901 -13.40145874 125.17623901 C-13.40145874 125.50623901 -13.40145874 125.83623901 -13.40145874 126.17623901 C-28.91145874 126.17623901 -44.42145874 126.17623901 -60.40145874 126.17623901 C-61.06145874 127.49623901 -61.72145874 128.81623901 -62.40145874 130.17623901 C-63.06145874 130.17623901 -63.72145874 130.17623901 -64.40145874 130.17623901 C-64.40145874 97.50623901 -64.40145874 64.83623901 -64.40145874 31.17623901 C-65.72145874 30.51623901 -67.04145874 29.85623901 -68.40145874 29.17623901 C-69.98544312 27.89523315 -69.98544312 27.89523315 -71.49520874 26.46139526 C-72.05079468 25.93996948 -72.60638062 25.4185437 -73.17880249 24.88131714 C-73.74727905 24.33926636 -74.31575562 23.79721558 -74.90145874 23.23873901 C-76.0352302 22.16538395 -77.17060653 21.09372113 -78.30770874 20.02389526 C-78.83880249 19.52390015 -79.36989624 19.02390503 -79.91708374 18.50875854 C-81.50209422 17.04054836 -81.50209422 17.04054836 -83.80770874 15.42233276 C-84.59661499 14.80551636 -84.59661499 14.80551636 -85.40145874 14.17623901 C-85.40145874 13.51623901 -85.40145874 12.85623901 -85.40145874 12.17623901 C-86.39145874 11.84623901 -87.38145874 11.51623901 -88.40145874 11.17623901 C-88.40145874 10.51623901 -88.40145874 9.85623901 -88.40145874 9.17623901 C-89.39145874 9.17623901 -90.38145874 9.17623901 -91.40145874 9.17623901 C-95.40145874 4.83338187 -95.40145874 4.83338187 -95.40145874 2.17623901 C-78.63287147 1.44224588 -61.87071113 0.91791762 -45.08895874 0.61373901 C-43.97523895 0.59322479 -42.86151917 0.57271057 -41.71405029 0.55157471 C-27.81059798 0.29933905 -13.90580348 0.06158333 0 0 Z " fill="#202226" transform="translate(251.40145874023438,109.82376098632813)"/>
<path d="M0 0 C0.99 0.33 1.98 0.66 3 1 C3 1.66 3 2.32 3 3 C3.58201172 3.2364624 4.16402344 3.4729248 4.76367188 3.71655273 C7.49048022 5.28149067 8.85278017 7.05621628 10.78125 9.53515625 C20.555545 21.39559067 20.555545 21.39559067 34.546875 26.54296875 C41.39017225 26.92636975 48.18278246 26.68260826 55 26 C55 26.33 55 26.66 55 27 C46.75 27 38.5 27 30 27 C31.32 28.65 32.64 30.3 34 32 C34 32.66 34 33.32 34 34 C34.99 34 35.98 34 37 34 C38.6875 35.375 38.6875 35.375 40 37 C40 37.66 40 38.32 40 39 C40.87591797 39.38091797 40.87591797 39.38091797 41.76953125 39.76953125 C44.94632537 41.5220534 47.05026729 44.00660252 49.51171875 46.63671875 C51.76677319 49.0404969 51.76677319 49.0404969 54.18084717 49.97665405 C57.35461881 51.64871815 58.93994467 53.02754605 61 56 C62.76357834 63.20129979 62.04242482 70.99175786 61.87890625 78.33984375 C61.86211036 80.54941717 61.84930382 82.75902421 61.84031677 84.96864319 C61.80603015 90.77114164 61.71769008 96.57159717 61.61798096 102.37329102 C61.52574509 108.29870976 61.48477289 114.22446019 61.43945312 120.15039062 C61.34306652 131.76782237 61.18955671 143.383741 61 155 C61.66 154.67 62.32 154.34 63 154 C63.33 123.97 63.66 93.94 64 63 C64.33 63 64.66 63 65 63 C65 92.04 65 121.08 65 151 C72.21875 150.835 79.4375 150.67 86.875 150.5 C103.92008222 150.12399256 120.95025672 149.83510887 138 150 C138 150.33 138 150.66 138 151 C134.04 151.99 130.08 152.98 126 154 C133.16562789 154.28100502 139.94546999 153.20443195 147 152 C141.13668416 157.86331584 128.6876096 156.39412821 121 156.5625 C111.5895754 156.74527881 111.5895754 156.74527881 102.21875 157.53515625 C97.69332001 158.0401935 93.2033102 158.0434908 88.65625 157.9921875 C87.91431396 157.98434738 87.17237793 157.97650726 86.40795898 157.96842957 C83.31438457 157.93168528 80.22113852 157.88910213 77.12792969 157.82861328 C74.84565808 157.78648923 72.56380194 157.76292936 70.28125 157.7421875 C69.57923462 157.72356659 68.87721924 157.70494568 68.15393066 157.6857605 C65.98087139 157.6392841 65.98087139 157.6392841 63 158 C62.34 158.99 61.68 159.98 61 161 C58.875 162.1875 58.875 162.1875 57 163 C57.33 163.66 57.66 164.32 58 165 C56.8125 166.5 56.8125 166.5 55 168 C53.33382885 168.04063832 51.66611905 168.042721 50 168 C49.34 168.66 48.68 169.32 48 170 C47.26265625 170.2475 46.5253125 170.495 45.765625 170.75 C41.98001496 172.46101019 39.60350261 175.03459532 36.75 178 C35.93789062 178.81984375 35.93789062 178.81984375 35.109375 179.65625 C29.93924904 184.92977848 29.86050519 187.97787121 29.90234375 195.1640625 C29.90446617 196.52487442 29.90446617 196.52487442 29.90663147 197.91317749 C29.91223904 200.81715155 29.92479282 203.72104915 29.9375 206.625 C29.94251402 208.59114472 29.9470771 210.55729065 29.95117188 212.5234375 C29.96221094 217.3489879 29.97948065 222.17448097 30 227 C29.34 227.33 28.68 227.66 28 228 C27.505 140.88 27.505 140.88 27 52 C27.03480469 69.59054688 27.06960937 87.18109375 27.10546875 105.3046875 C27.12078825 116.41536589 27.13535328 127.52603668 27.14648438 138.63671875 C27.15235833 144.47054062 27.15841987 150.30436225 27.16479492 156.13818359 C27.16558617 156.86939623 27.16637741 157.60060887 27.16719264 158.35397947 C27.18025401 170.17141414 27.20391282 181.98880519 27.23145839 193.80621396 C27.25947565 205.9267339 27.27616845 218.04723095 27.28226548 230.16778195 C27.28638959 237.65172656 27.29943267 245.13554794 27.3237494 252.61945464 C27.3414257 258.3502665 27.34337496 264.08099873 27.33932304 269.81183243 C27.34015199 272.16855887 27.34616696 274.52528975 27.35761642 276.88198853 C27.37243007 280.08693695 27.36899442 283.29134783 27.36076355 286.49630737 C27.36950207 287.43987307 27.3782406 288.38343878 27.38724393 289.35559738 C27.38127078 290.20952799 27.37529764 291.06345861 27.36914349 291.94326591 C27.37085223 293.05394788 27.37085223 293.05394788 27.37259549 294.18706787 C27 296 27 296 24 298 C23.54625 298.763125 23.0925 299.52625 22.625 300.3125 C20.77847754 303.36636407 18.54836102 305.51698157 16 308 C15.34 308.99 14.68 309.98 14 311 C13.34 311 12.68 311 12 311 C11.76410156 311.54140625 11.52820313 312.0828125 11.28515625 312.640625 C9.64911286 315.64418186 7.61164705 318.1117092 5.4375 320.75 C4.63183594 321.73484375 3.82617188 322.7196875 2.99609375 323.734375 C2.33738281 324.48203125 1.67867188 325.2296875 1 326 C0.67 326 0.34 326 0 326 C0 218.42 0 110.84 0 0 Z " fill="#292B30" transform="translate(126,85)"/>
<path d="M0 0 C0.33 0 0.66 0 1 0 C1.33 65.34 1.66 130.68 2 198 C2 185.46 2 172.92 2 160 C6.29 160 10.58 160 15 160 C15 160.33 15 160.66 15 161 C11.37 161 7.74 161 4 161 C4 161.66 4 162.32 4 163 C4.8353125 163.3403125 4.8353125 163.3403125 5.6875 163.6875 C8.66159588 165.37550036 10.72008865 167.46676517 13 170 C13 170.66 13 171.32 13 172 C13.680625 172.20625 14.36125 172.4125 15.0625 172.625 C18.91639375 174.42895027 22.07787764 176.9010345 25 180 C25 180.66 25 181.32 25 182 C25.598125 182.28875 26.19625 182.5775 26.8125 182.875 C30.45084912 184.74615098 32.84260694 186.53344942 35 190 C35.43138123 192.15646362 35.43138123 192.15646362 35.50952148 194.56201172 C35.56234032 195.96702438 35.56234032 195.96702438 35.6162262 197.40042114 C35.63845749 198.44132904 35.66068878 199.48223694 35.68359375 200.5546875 C35.73343666 202.23605301 35.73343666 202.23605301 35.7842865 203.9513855 C36.22867477 221.38186546 36.11028323 238.8264498 36.06866455 256.26092529 C36.05825806 261.09582064 36.05383062 265.93072158 36.04882812 270.765625 C36.03824534 280.17709754 36.02128022 289.58854597 36 299 C31.69248765 298.16394275 30.02824843 296.17245074 27 293 C25.90578681 292.09203586 24.8016163 291.19592869 23.6875 290.3125 C22.3571875 289.1678125 22.3571875 289.1678125 21 288 C21 287.34 21 286.68 21 286 C20.34 286 19.68 286 19 286 C19 285.34 19 284.68 19 284 C18.34 284 17.68 284 17 284 C17 283.34 17 282.68 17 282 C16.34 282 15.68 282 15 282 C15 281.34 15 280.68 15 280 C14.1646875 279.62875 14.1646875 279.62875 13.3125 279.25 C10.57589087 277.77075182 8.32349131 276.06532561 6 274 C6 273.34 6 272.68 6 272 C5.34 272 4.68 272 4 272 C4 271.34 4 270.68 4 270 C2.35 270 0.7 270 -1 270 C-1.02290203 237.0477557 -1.04051637 204.09551347 -1.05106533 171.14326302 C-1.052316 167.25061934 -1.05361032 163.35797568 -1.05493164 159.46533203 C-1.05519395 158.69039529 -1.05545626 157.91545856 -1.05572652 157.11703889 C-1.0600747 144.57873078 -1.06795757 132.04042727 -1.0771528 119.50212188 C-1.08651302 106.63123264 -1.09206063 93.7603458 -1.09408849 80.88945329 C-1.0954588 72.95107988 -1.09978272 65.01271946 -1.10791647 57.07435004 C-1.11384039 50.98138143 -1.11445296 44.88842394 -1.11310768 38.79545212 C-1.11338247 36.30018789 -1.11536736 33.80492316 -1.11920547 31.30966187 C-1.12419591 27.89747351 -1.12297856 24.48534032 -1.12025452 21.07315063 C-1.12316736 20.09063249 -1.1260802 19.10811435 -1.12908131 18.09582293 C-1.11598397 12.00716713 -0.72125472 6.0458382 0 0 Z " fill="#19191E" transform="translate(153,112)"/>
<path d="M0 0 C2.26353218 2.21560723 4.412089 4.48740894 6.5234375 6.84765625 C7.3896875 7.79640625 8.2559375 8.74515625 9.1484375 9.72265625 C9.6021875 10.42390625 10.0559375 11.12515625 10.5234375 11.84765625 C10.0284375 13.33265625 10.0284375 13.33265625 9.5234375 14.84765625 C9.15992188 14.36554688 8.79640625 13.8834375 8.421875 13.38671875 C7.91914063 12.75507813 7.41640625 12.1234375 6.8984375 11.47265625 C6.41117187 10.84617188 5.92390625 10.2196875 5.421875 9.57421875 C1.02202487 5.57270896 -4.523563 5.55795419 -10.19140625 5.6171875 C-11.29060143 5.61787483 -11.29060143 5.61787483 -12.41200256 5.61857605 C-13.96096417 5.62158582 -15.50992309 5.62943375 -17.05883789 5.6418457 C-19.37592892 5.65985978 -21.69261248 5.66235654 -24.00976562 5.66210938 C-31.06608572 5.67938461 -38.06497532 5.8370009 -45.10546875 6.359375 C-52.88049328 6.87441372 -60.68449786 6.84765625 -68.4765625 6.84765625 C-68.4765625 33.24765625 -68.4765625 59.64765625 -68.4765625 86.84765625 C-61.5465625 86.84765625 -54.6165625 86.84765625 -47.4765625 86.84765625 C-47.4765625 87.17765625 -47.4765625 87.50765625 -47.4765625 87.84765625 C-62.9865625 87.84765625 -78.4965625 87.84765625 -94.4765625 87.84765625 C-95.1365625 89.16765625 -95.7965625 90.48765625 -96.4765625 91.84765625 C-97.1365625 91.84765625 -97.7965625 91.84765625 -98.4765625 91.84765625 C-98.4765625 58.84765625 -98.4765625 25.84765625 -98.4765625 -8.15234375 C-11.5094674 -10.00270748 -11.5094674 -10.00270748 0 0 Z " fill="#0E0E12" transform="translate(285.4765625,148.15234375)"/>
<path d="M0 0 C0.33 0 0.66 0 1 0 C1 90.75 1 181.5 1 275 C5.40890441 270.59109559 9.1740421 266.11302543 13.01171875 261.23046875 C13.66785156 260.49441406 14.32398438 259.75835937 15 259 C15.66 259 16.32 259 17 259 C17.20625 258.278125 17.4125 257.55625 17.625 256.8125 C19.39231274 253.19754213 21.90172206 251.51735083 25 249 C26.37254588 246.85019503 26.37254588 246.85019503 27 245 C29.31 245 31.62 245 34 245 C34 245.66 34 246.32 34 247 C34.66 247 35.32 247 36 247 C37.68873879 248.64429829 39.35305515 250.31384218 41 252 C41.763125 252.556875 42.52625 253.11375 43.3125 253.6875 C43.869375 254.120625 44.42625 254.55375 45 255 C45 255.66 45 256.32 45 257 C45.66 257 46.32 257 47 257 C47 257.66 47 258.32 47 259 C47.66 259 48.32 259 49 259 C49 259.66 49 260.32 49 261 C49.66 261 50.32 261 51 261 C51 261.66 51 262.32 51 263 C51.99 263.33 52.98 263.66 54 264 C54 264.66 54 265.32 54 266 C55.11375 266.3403125 55.11375 266.3403125 56.25 266.6875 C59.51069263 268.24373966 60.83515305 270.163304 63 273 C63.66 273 64.32 273 65 273 C65 248.58 65 224.16 65 199 C65.66 199 66.32 199 67 199 C67 225.07 67 251.14 67 278 C67.66 278.33 68.32 278.66 69 279 C60.44649477 279.04631606 51.89304184 279.08186543 43.33944225 279.10362434 C39.36777 279.11406689 35.39618346 279.12823463 31.42456055 279.15087891 C27.59257984 279.17259058 23.76068165 279.18456508 19.92864418 279.18975449 C18.46578993 279.19345326 17.00294025 279.20067596 15.54012108 279.21146011 C13.49303764 279.22595298 11.44629631 279.2279789 9.39916992 279.22705078 C7.65043831 279.23371262 7.65043831 279.23371262 5.86637878 279.24050903 C3 279 3 279 0 277 C-0.37259549 274.9754709 -0.37259549 274.9754709 -0.36914349 272.42789268 C-0.37511663 271.45901001 -0.38108978 270.49012734 -0.38724393 269.49188459 C-0.3785054 268.41991759 -0.36976688 267.3479506 -0.36076355 266.24349976 C-0.36332682 265.1106469 -0.3658901 263.97779405 -0.36853105 262.81061232 C-0.3734993 258.98867147 -0.35692564 255.16711972 -0.34057617 251.34521484 C-0.33806311 248.61588794 -0.34007144 245.88656881 -0.34190369 243.15724182 C-0.34347912 237.26787614 -0.33404178 231.37860992 -0.31719017 225.48926926 C-0.29284123 216.97421762 -0.28499912 208.45921424 -0.2812262 199.94413157 C-0.27465525 186.1300448 -0.25467667 172.31601108 -0.22631836 158.50195312 C-0.19879441 145.08040635 -0.1775527 131.65887397 -0.16479492 118.23730469 C-0.16400675 117.41043236 -0.16321858 116.58356003 -0.16240653 115.73163097 C-0.1584915 111.58358459 -0.15470036 107.43553811 -0.15097082 103.28749156 C-0.11985488 68.85828952 -0.06700162 34.42915047 0 0 Z " fill="#040509" transform="translate(123,137)"/>
<path d="M0 0 C7.37604906 0.45344564 13.22990842 2.36055484 20 5.25 C20.93328125 5.63285156 21.8665625 6.01570313 22.828125 6.41015625 C28.78781828 8.89891085 34.42810928 11.73597266 40 15 C40 15.99 40 16.98 40 18 C41.32 18.33 42.64 18.66 44 19 C43.67 19.66 43.34 20.32 43 21 C40.9375 21.625 40.9375 21.625 39 22 C39.94875 22.86625 40.8975 23.7325 41.875 24.625 C54.47589471 37.32772012 62.50473731 53.45859916 67.9921875 70.3046875 C68.82597573 73.1024228 68.82597573 73.1024228 71 75 C71.04166002 77.3329614 71.04166002 79.6670386 71 82 C71.33 82.66 71.66 83.32 72 84 C72 86.33333333 72 88.66666667 72 91 C72.33 91.99 72.66 92.98 73 94 C73.37451284 102.37146357 72.9506607 110.68171887 72 119 C71.67 119 71.34 119 71 119 C70.505 106.625 70.505 106.625 70 94 C69.34 94 68.68 94 68 94 C67.87995605 93.38705078 67.75991211 92.77410156 67.63623047 92.14257812 C62.26891448 63.89185898 62.26891448 63.89185898 47 40 C47.495 43.465 47.495 43.465 48 47 C45.69 46.34 43.38 45.68 41 45 C41 42.36 41 39.72 41 37 C40.071875 36.731875 39.14375 36.46375 38.1875 36.1875 C35.20486385 35.07632183 33.88134543 34.47545451 32 32 C31.505 30.515 31.505 30.515 31 29 C30.67 29.66 30.34 30.32 30 31 C29.01 30.67 28.02 30.34 27 30 C26.938125 29.236875 26.87625 28.47375 26.8125 27.6875 C26.2353919 24.7941957 26.2353919 24.7941957 23.5625 23.25 C22.716875 22.8375 21.87125 22.425 21 22 C20.34 21.67 19.68 21.34 19 21 C19 21.66 19 22.32 19 23 C18.01 22.67 17.02 22.34 16 22 C16.2784375 21.1028125 16.2784375 21.1028125 16.5625 20.1875 C17.22093687 17.83591238 17.22093687 17.83591238 16 15 C12.58442859 13.19733731 9.83134499 12.781066 6 13 C6 12.01 6 11.02 6 10 C3.03 9.505 3.03 9.505 0 9 C0 8.34 0 7.68 0 7 C-6.94495306 5.52109168 -6.94495306 5.52109168 -14 5 C-14.66 5 -15.32 5 -16 5 C-16.33 4.34 -16.66 3.68 -17 3 C-17.99 2.34 -18.98 1.68 -20 1 C-14.23862925 1.55755201 -8.71038892 2.40576403 -3.06640625 3.6953125 C-0.94268051 4.21004896 -0.94268051 4.21004896 1 3 C0.67 2.01 0.34 1.02 0 0 Z " fill="#3D3F45" transform="translate(304,81)"/>
<path d="M0 0 C0.33 0 0.66 0 1 0 C1.62678964 28.0801758 1.62678964 28.0801758 -2 42 C-2.16097168 42.66193359 -2.32194336 43.32386719 -2.48779297 44.00585938 C-5.44171241 56.04854342 -10.28435832 67.02108036 -16 78 C-16.32653564 78.6276123 -16.65307129 79.25522461 -16.98950195 79.90185547 C-22.25468816 89.58005901 -34.22101011 103.40700337 -45 107 C-45.4125 107.45375 -45.825 107.9075 -46.25 108.375 C-48.83961486 110.77964237 -51.72315134 111.701626 -55 113 C-55.33 111.68 -55.66 110.36 -56 109 C-56.68707031 109.433125 -57.37414062 109.86625 -58.08203125 110.3125 C-58.98308594 110.869375 -59.88414062 111.42625 -60.8125 112 C-61.70582031 112.556875 -62.59914063 113.11375 -63.51953125 113.6875 C-66 115 -66 115 -69 115 C-69 114.34 -69 113.68 -69 113 C-68.25234375 112.60167969 -67.5046875 112.20335937 -66.734375 111.79296875 C-65.74953125 111.26316406 -64.7646875 110.73335938 -63.75 110.1875 C-62.77546875 109.66542969 -61.8009375 109.14335937 -60.796875 108.60546875 C-58.36035433 107.20685144 -56.23623216 105.68641475 -54 104 C-53.37351562 103.7009375 -52.74703125 103.401875 -52.1015625 103.09375 C-49.20507911 101.58628652 -46.88444752 99.58331492 -44.375 97.5 C-43.41335938 96.7059375 -42.45171875 95.911875 -41.4609375 95.09375 C-39.02174771 93.07531891 -39.02174771 93.07531891 -37 91 C-36.01 91 -35.02 91 -34 91 C-33.896875 90.4225 -33.79375 89.845 -33.6875 89.25 C-32.89103535 86.64338842 -31.80934723 85.0264689 -30 83 C-29.34 83 -28.68 83 -28 83 C-27.505 81.515 -27.505 81.515 -27 80 C-26.62875 79.319375 -26.2575 78.63875 -25.875 77.9375 C-25.58625 77.298125 -25.2975 76.65875 -25 76 C-25.33 75.34 -25.66 74.68 -26 74 C-25.0925 73.54625 -24.185 73.0925 -23.25 72.625 C-18.75245108 69.70479051 -17.58751363 64.8932773 -16 60 C-15.34 60 -14.68 60 -14 60 C-13.67 58.68 -13.34 57.36 -13 56 C-12.34 56 -11.68 56 -11 56 C-11.05607422 54.92492187 -11.05607422 54.92492187 -11.11328125 53.828125 C-10.99013827 50.75379669 -10.32595817 48.59827736 -9.1875 45.75 C-8.85105469 44.87859375 -8.51460938 44.0071875 -8.16796875 43.109375 C-7 41 -7 41 -4 40 C-3.83318891 37.08347826 -3.83318891 37.08347826 -4 34 C-4.66 33.34 -5.32 32.68 -6 32 C-5.34 32 -4.68 32 -4 32 C-4 29.69 -4 27.38 -4 25 C-2.515 25.495 -2.515 25.495 -1 26 C-0.67 17.42 -0.34 8.84 0 0 Z " fill="#07070B" transform="translate(371,176)"/>
<path d="M0 0 C13.71636104 13.05190064 19.50855781 31.9394897 22.75878906 50.12158203 C23.11718637 52.09192788 23.55138749 54.04821666 24 56 C24.66 56.33 25.32 56.66 26 57 C26.495 65.415 26.495 65.415 27 74 C27.33 74 27.66 74 28 74 C28.39566379 81.78138785 26.99317404 88.4953366 25 96 C24.83902832 96.63969727 24.67805664 97.27939453 24.51220703 97.93847656 C20.11963334 115.28091446 12.71095735 130.68853056 2 145 C1.34 145.99 0.68 146.98 0 148 C-0.66 147.67 -1.32 147.34 -2 147 C-1.62488281 146.56171875 -1.24976563 146.1234375 -0.86328125 145.671875 C3.07474688 140.79149758 5.45164289 135.94481538 7.71875 130.1171875 C8.97044304 127.07190992 10.43008334 124.26653017 12 121.375 C18.3674762 108.85339088 22.28125565 93.03721382 22 79 C21.34 79.99 20.68 80.98 20 82 C18.78578901 79.57157803 18.84359465 77.9365064 18.7890625 75.22265625 C18.1909763 52.72128315 15.78596598 33.20832949 5.078125 13.11328125 C2.93111841 8.90483718 1.46011503 4.48463903 0 0 Z " fill="#26272B" transform="translate(349,118)"/>
<path d="M0 0 C-0.33 0.66 -0.66 1.32 -1 2 C-12.80088222 2.83375798 -24.20567437 3.0574223 -36 2 C-36 2.66 -36 3.32 -36 4 C-59.1 4 -82.2 4 -106 4 C-106 4.99 -106 5.98 -106 7 C-106.99 6.67 -107.98 6.34 -109 6 C-108.67 5.34 -108.34 4.68 -108 4 C-116.415 4.495 -116.415 4.495 -125 5 C-125.33 112.91 -125.66 220.82 -126 332 C-126.33 332 -126.66 332 -127 332 C-127 223.43 -127 114.86 -127 3 C-123.44369422 2.28873884 -120.69983555 1.86356706 -117.16937256 1.80381775 C-115.75237312 1.77651329 -115.75237312 1.77651329 -114.30674744 1.74865723 C-113.28222977 1.73355103 -112.2577121 1.71844482 -111.20214844 1.70288086 C-109.56950798 1.67340111 -109.56950798 1.67340111 -107.90388489 1.64332581 C-104.30577592 1.57946538 -100.70759463 1.52210061 -97.109375 1.46484375 C-94.60458744 1.42180771 -92.09980639 1.37839104 -89.59503174 1.33460999 C-84.34285706 1.24370237 -79.09064394 1.1555764 -73.83837891 1.07006836 C-67.11892961 0.96066804 -60.39957171 0.84646516 -53.680233 0.73049068 C-47.2608026 0.61979057 -40.84134372 0.51079654 -34.421875 0.40234375 C-33.2021978 0.38171309 -31.9825206 0.36108242 -30.72588348 0.33982658 C-27.25574638 0.28155997 -23.78559259 0.22443157 -20.31542969 0.16772461 C-19.29900894 0.15059418 -18.2825882 0.13346375 -17.23536682 0.11581421 C-11.48932682 0.0233485 -5.74678921 -0.01588341 0 0 Z " fill="#44464A" transform="translate(252,79)"/>
<path d="M0 0 C0.66 0 1.32 0 2 0 C2 26.07 2 52.14 2 79 C2.66 79.33 3.32 79.66 4 80 C-4.57077598 80.04628427 -13.14149997 80.08184919 -21.71236992 80.10362434 C-25.69191773 80.11407386 -29.67138021 80.12825422 -33.65087891 80.15087891 C-37.48933886 80.17256585 -41.32771659 80.18455982 -45.16623306 80.18975449 C-46.63270487 80.19345773 -48.09917205 80.200689 -49.56560898 80.21146011 C-51.61529106 80.22592019 -53.66463082 80.22798029 -55.71435547 80.22705078 C-56.88239716 80.231492 -58.05043884 80.23593323 -59.25387573 80.24050903 C-62 80 -62 80 -64 78 C-60.82455471 76.94151824 -58.48932514 76.84365886 -55.15161133 76.79467773 C-53.9505928 76.77473251 -52.74957428 76.75478729 -51.51216125 76.73423767 C-50.21521835 76.71752518 -48.91827545 76.70081268 -47.58203125 76.68359375 C-46.2410977 76.66301707 -44.90017054 76.64202041 -43.55924988 76.62062073 C-40.03298111 76.56547373 -36.50665452 76.51603206 -32.98028564 76.46777344 C-29.38068507 76.4175045 -25.78116827 76.36184661 -22.18164062 76.30664062 C-15.12116648 76.19914929 -8.06061718 76.09768435 -1 76 C0.49282393 73.01435214 0.11916977 70.31016282 0.11352539 66.97998047 C0.11367142 66.25792419 0.11381744 65.53586792 0.1139679 64.79193115 C0.11327007 62.40031959 0.10548375 60.00878549 0.09765625 57.6171875 C0.09579161 55.96094811 0.09436792 54.30470816 0.09336853 52.64846802 C0.08954699 48.28532392 0.07971978 43.922213 0.06866455 39.55908203 C0.05844264 35.10840301 0.05386924 30.65771863 0.04882812 26.20703125 C0.0380972 17.47133892 0.02102512 8.73567359 0 0 Z " fill="#0B0B0F" transform="translate(188,336)"/>
<path d="M0 0 C2.65993953 -0.01100155 5.31946329 -0.02988033 7.97937012 -0.05255127 C42.66423994 -0.32896922 42.66423994 -0.32896922 54.83538818 6.23117065 C50.80591584 7.84295959 47.8618754 6.39134494 43.83538818 5.23117065 C40.125381 4.81285662 40.125381 4.81285662 36.83538818 5.23117065 C36.17538818 6.22117065 35.51538818 7.21117065 34.83538818 8.23117065 C32.95599365 8.47994995 32.95599365 8.47994995 30.70257568 8.3053894 C29.89691162 8.25060425 29.09124756 8.19581909 28.26116943 8.13937378 C27.41941162 8.06654175 26.57765381 7.99370972 25.71038818 7.91867065 C24.860896 7.85744019 24.01140381 7.79620972 23.13616943 7.73312378 C21.03485154 7.57965674 18.93493695 7.40719343 16.83538818 7.23117065 C16.83538818 6.57117065 16.83538818 5.91117065 16.83538818 5.23117065 C19.31038818 4.73617065 19.31038818 4.73617065 21.83538818 4.23117065 C21.83538818 3.90117065 21.83538818 3.57117065 21.83538818 3.23117065 C-9.18461182 3.23117065 -40.20461182 3.23117065 -72.16461182 3.23117065 C-72.16461182 2.90117065 -72.16461182 2.57117065 -72.16461182 2.23117065 C-64.05233232 1.27159042 -55.95149874 0.89802219 -47.78961182 0.66867065 C-46.72110489 0.63839783 -46.72110489 0.63839783 -45.63101196 0.60751343 C-30.42415476 0.19633356 -15.2118172 0.0614098 0 0 Z " fill="#494B50" transform="translate(248.16461181640625,73.76882934570313)"/>
<path d="M0 0 C13.53043088 12.87497748 21.93183164 34.46563842 23 53 C23.34276044 76.98585935 23.34276044 76.98585935 20 82 C18.78578901 79.57157803 18.84359465 77.9365064 18.7890625 75.22265625 C18.1909763 52.72128315 15.78596598 33.20832949 5.078125 13.11328125 C2.93111841 8.90483718 1.46011503 4.48463903 0 0 Z " fill="#17181D" transform="translate(349,118)"/>
<path d="M0 0 C14.90778013 -0.02336776 29.81555884 -0.04099824 44.72335339 -0.05181217 C51.64540914 -0.05696688 58.56745351 -0.06399388 65.48950195 -0.07543945 C72.16789723 -0.08647688 78.84627823 -0.09228224 85.524683 -0.09487724 C88.07439676 -0.09672691 90.62410986 -0.10033876 93.17381859 -0.10573006 C96.74113751 -0.11297402 100.30840734 -0.11398951 103.87573242 -0.11352539 C104.93309097 -0.11712067 105.99044952 -0.12071594 107.07984924 -0.12442017 C108.05435028 -0.1230455 109.02885132 -0.12167084 110.03288269 -0.12025452 C110.87632327 -0.12117631 111.71976385 -0.1220981 112.58876324 -0.12304783 C115.14092684 0.00719164 117.50967615 0.43986573 120 1 C120 1.66 120 2.32 120 3 C117.50240999 4.248795 115.8184541 4.1293746 113.0234375 4.1328125 C111.45722656 4.13583374 111.45722656 4.13583374 109.859375 4.13891602 C108.70953125 4.13432373 107.5596875 4.12973145 106.375 4.125 C105.15554687 4.12234131 103.93609375 4.11968262 102.6796875 4.11694336 C92.8549357 4.06764487 83.04788498 3.77751676 73.22998047 3.4284668 C57.99103275 2.90625017 42.7453313 2.68556134 27.5 2.4375 C26.82007996 2.4263982 26.14015991 2.4152964 25.43963623 2.40385818 C16.95981545 2.26552277 8.47993999 2.13082934 0 2 C0 1.34 0 0.68 0 0 Z " fill="#35383E" transform="translate(125,76)"/>
<path d="M0 0 C0 0.66 0 1.32 0 2 C-0.59167969 1.7834375 -1.18335938 1.566875 -1.79296875 1.34375 C-6.0543809 -0.15782426 -9.44521612 -1.13802375 -14 -1 C-14.99 -1.99 -14.99 -1.99 -16 -3 C-18.49962246 -3.1877701 -20.88744197 -3.25194071 -23.38720703 -3.22705078 C-24.52881287 -3.22748886 -24.52881287 -3.22748886 -25.69348145 -3.22793579 C-28.21504016 -3.22653981 -30.73630525 -3.21096618 -33.2578125 -3.1953125 C-35.00373167 -3.19158332 -36.74965294 -3.1887359 -38.49557495 -3.18673706 C-43.0954972 -3.17909311 -47.69529357 -3.15943813 -52.29516602 -3.1373291 C-56.9871246 -3.11688704 -61.67910349 -3.10773886 -66.37109375 -3.09765625 C-75.58078454 -3.07619292 -84.79038181 -3.04204783 -94 -3 C-94 -0.69 -94 1.62 -94 4 C-94.33 4 -94.66 4 -95 4 C-95.33 0.7 -95.66 -2.6 -96 -6 C-13.42964437 -7.94258877 -13.42964437 -7.94258877 0 0 Z " fill="#040408" transform="translate(283,146)"/>
<path d="M0 0 C21.71156212 1.1427138 42.16651372 13.74932191 57 29 C58.92474452 31.21805179 60.75958904 33.49465715 62.5625 35.8125 C62.99248291 36.36381592 63.42246582 36.91513184 63.86547852 37.4831543 C65.93291502 40.23567344 67.52351107 42.54754511 68 46 C65.69 45.34 63.38 44.68 61 44 C61 41.36 61 38.72 61 36 C60.071875 35.731875 59.14375 35.46375 58.1875 35.1875 C55.20486385 34.07632183 53.88134543 33.47545451 52 31 C51.505 29.515 51.505 29.515 51 28 C50.67 28.66 50.34 29.32 50 30 C49.01 29.67 48.02 29.34 47 29 C46.938125 28.236875 46.87625 27.47375 46.8125 26.6875 C46.2353919 23.7941957 46.2353919 23.7941957 43.5625 22.25 C42.716875 21.8375 41.87125 21.425 41 21 C40.34 20.67 39.68 20.34 39 20 C39 20.66 39 21.32 39 22 C38.01 21.67 37.02 21.34 36 21 C36.2784375 20.1028125 36.2784375 20.1028125 36.5625 19.1875 C37.22093687 16.83591238 37.22093687 16.83591238 36 14 C32.58442859 12.19733731 29.83134499 11.781066 26 12 C26 11.01 26 10.02 26 9 C23.03 8.505 23.03 8.505 20 8 C20 7.34 20 6.68 20 6 C13.05504694 4.52109168 13.05504694 4.52109168 6 4 C5.34 4 4.68 4 4 4 C3.67 3.34 3.34 2.68 3 2 C2.01 1.34 1.02 0.68 0 0 Z " fill="#7B7E85" transform="translate(284,82)"/>
<path d="M0 0 C1.485 0.99 1.485 0.99 3 2 C3.99 1.67 4.98 1.34 6 1 C6.66 1.66 7.32 2.32 8 3 C7.34 3 6.68 3 6 3 C6 3.66 6 4.32 6 5 C6.66 5 7.32 5 8 5 C8.66 5.66 9.32 6.32 10 7 C11.19544543 7.89252713 12.40493411 8.76643511 13.625 9.625 C14.25664062 10.07101563 14.88828125 10.51703125 15.5390625 10.9765625 C16.02117187 11.31429687 16.50328125 11.65203125 17 12 C16.67 12.99 16.34 13.98 16 15 C16.99 15.33 17.98 15.66 19 16 C19.66 15.67 20.32 15.34 21 15 C21 15.66 21 16.32 21 17 C21.66 17 22.32 17 23 17 C23.33 17.99 23.66 18.98 24 20 C44.22755463 20.15737736 44.22755463 20.15737736 64.4375 19.4375 C75.33294754 18.8127517 86.11791191 19.29859678 97 20 C97 20.33 97 20.66 97 21 C91.4506605 21.24259408 85.90176101 21.47313938 80.34838867 21.59838867 C78.88069575 21.63196101 77.41300373 21.66557245 75.9453125 21.69921875 C74.79011864 21.72498238 74.79011864 21.72498238 73.61158752 21.75126648 C68.14072349 21.89237097 62.69572802 22.20360835 57.23587036 22.57290649 C20.85822456 24.91332461 20.85822456 24.91332461 11.546875 17.54296875 C6.5466737 12.94847004 2.46459784 7.83511214 -1 2 C-0.67 1.34 -0.34 0.68 0 0 Z " fill="#4C4D52" transform="translate(134,89)"/>
<path d="M0 0 C10.4549464 1.86406021 21.07334806 5.17287998 30 11 C30 11.99 30 12.98 30 14 C31.32 14.33 32.64 14.66 34 15 C33.67 15.66 33.34 16.32 33 17 C30.9375 17.625 30.9375 17.625 29 18 C30.423125 19.299375 30.423125 19.299375 31.875 20.625 C35.45746241 24.2001213 38.42708107 28.09015826 41.375 32.1875 C41.81569824 32.79352051 42.25639648 33.39954102 42.71044922 34.02392578 C44.76162498 36.92568673 46.52106979 39.42576159 47 43 C44.86575993 40.98262034 43.26400811 38.97040447 41.6875 36.5 C39.28948902 33.04105083 36.86229321 31.71657476 33 30 C31 27 31 27 31 23 C24.57030075 13.28293572 10.36377519 5.5371366 0 1 C0 0.67 0 0.34 0 0 Z " fill="#575B64" transform="translate(314,85)"/>
<path d="M0 0 C-8.78246317 2.61721029 -16.98611475 3.48638202 -26.125 3.625 C-28.52350513 3.67663628 -30.9219478 3.73127058 -33.3203125 3.7890625 C-35.04846191 3.82990967 -35.04846191 3.82990967 -36.81152344 3.87158203 C-39.49986643 3.97985679 -42.1056613 4.20387721 -44.7734375 4.53125 C-49.30172443 5.0391212 -53.79359141 5.04381025 -58.34375 4.9921875 C-59.45663895 4.98041977 -59.45663895 4.98041977 -60.5920105 4.96841431 C-63.68559538 4.93169113 -66.77885129 4.88910233 -69.87207031 4.82861328 C-72.15434192 4.78648923 -74.43619806 4.76292936 -76.71875 4.7421875 C-77.77177307 4.71425613 -77.77177307 4.71425613 -78.84606934 4.6857605 C-81.01912861 4.6392841 -81.01912861 4.6392841 -84 5 C-84.99 6.485 -84.99 6.485 -86 8 C-88.125 9.1875 -88.125 9.1875 -90 10 C-89.67 10.66 -89.34 11.32 -89 12 C-90.1875 13.5 -90.1875 13.5 -92 15 C-93.66611905 15.042721 -95.33382885 15.04063832 -97 15 C-98.3537208 15.6242293 -99.69141674 16.28597474 -101 17 C-99.62004737 15.34405685 -98.23146093 13.69477506 -96.80761719 12.07641602 C-95.61756705 10.70940137 -94.46521657 9.3084834 -93.35644531 7.87475586 C-90.62051496 4.64790555 -88.46014783 2.33366659 -84.25 1.37158203 C-80.88688396 1.24169245 -77.60986854 1.36312418 -74.25 1.5625 C-72.29438425 1.61995958 -70.33874366 1.67707051 -68.38287354 1.72509766 C-66.95970418 1.76047747 -65.53664007 1.80032386 -64.1137085 1.84423828 C-54.97072723 2.10914479 -45.83514585 1.89893625 -36.69274902 1.68966675 C-33.79688905 1.62603038 -30.90104637 1.57705222 -28.00488281 1.52954102 C-26.18553087 1.49181229 -24.36619392 1.45335146 -22.546875 1.4140625 C-21.73118042 1.40254654 -20.91548584 1.39103058 -20.07507324 1.37916565 C-14.91847975 1.24830428 -10.1636821 0.52836961 -5.14483643 -0.67471313 C-3 -1 -3 -1 0 0 Z " fill="#52545A" transform="translate(273,238)"/>
<path d="M0 0 C4.36806887 1.28661822 7.78788934 2.96569526 11.5625 5.5 C15.5740355 8.18573724 19.29497908 10.45492045 24.07421875 11.41796875 C26.61627688 12.18625812 27.92778261 13.45952522 29.8125 15.3125 C30.43769531 15.90675781 31.06289063 16.50101563 31.70703125 17.11328125 C32.13371094 17.73589844 32.56039062 18.35851562 33 19 C32.68051637 20.33671953 32.34767694 21.67033477 32 23 C33.3355878 24.54429413 33.3355878 24.54429413 35 26 C35.94921875 28.04296875 35.94921875 28.04296875 36.6875 30.1875 C36.93886719 30.90292969 37.19023437 31.61835937 37.44921875 32.35546875 C37.63097656 32.89816406 37.81273437 33.44085938 38 34 C37.34 34 36.68 34 36 34 C34.4140625 32.20703125 34.4140625 32.20703125 32.625 29.8125 C31.99722656 28.98621094 31.36945313 28.15992187 30.72265625 27.30859375 C29.49804818 25.66745232 28.2785219 24.02251354 27.0625 22.375 C19.97429708 14.21282694 10.71665292 8.01021075 1.6875 2.19921875 C1.130625 1.80347656 0.57375 1.40773438 0 1 C0 0.67 0 0.34 0 0 Z " fill="#2C2F35" transform="translate(314,90)"/>
<path d="M0 0 C2 3 2 3 3 6 C3.66 6.66 4.32 7.32 5 8 C5.04166002 10.3329614 5.04166002 12.6670386 5 15 C5.33 15.66 5.66 16.32 6 17 C6 19.33333333 6 21.66666667 6 24 C6.33 24.99 6.66 25.98 7 27 C7.37451284 35.37146357 6.9506607 43.68171887 6 52 C5.67 52 5.34 52 5 52 C4.67 43.75 4.34 35.5 4 27 C3.34 27 2.68 27 2 27 C0.35 18.75 -1.3 10.5 -3 2 C-2.01 1.34 -1.02 0.68 0 0 Z " fill="#3B3C42" transform="translate(370,148)"/>
<path d="M0 0 C-0.33 0.66 -0.66 1.32 -1 2 C-12.80088222 2.83375798 -24.20567437 3.0574223 -36 2 C-36 2.66 -36 3.32 -36 4 C-69.66 3.505 -69.66 3.505 -104 3 C-104 2.67 -104 2.34 -104 2 C-91.76899845 1.73810748 -79.53797532 1.47724929 -67.30692387 1.21769714 C-61.62704966 1.09713372 -55.94718338 0.97621932 -50.26733398 0.85449219 C-44.78196883 0.73694622 -39.29658449 0.62033609 -33.81118584 0.50436401 C-31.72251112 0.46004289 -29.63384343 0.41538939 -27.54518318 0.37039185 C-24.6109508 0.30723534 -21.67669525 0.24528023 -18.74243164 0.18359375 C-17.88646896 0.16489227 -17.03050629 0.1461908 -16.14860535 0.12692261 C-10.76449658 0.0153006 -5.38528592 -0.01588088 0 0 Z " fill="#5C5E63" transform="translate(252,79)"/>
<path d="M0 0 C3.38848585 0.64357969 5.8081942 1.93262266 8.6875 3.8125 C9.47511719 4.31394531 10.26273437 4.81539063 11.07421875 5.33203125 C13.22884474 7.19820832 13.64416666 8.21967508 14 11 C10.535 9.02 10.535 9.02 7 7 C7.99 8.65 8.98 10.3 10 12 C9.01 13.485 9.01 13.485 8 15 C10.31 15 12.62 15 15 15 C15.33 15.66 15.66 16.32 16 17 C15.34 17.99 14.68 18.98 14 20 C10.87426153 19.67831165 9.37067999 19.37299193 7.12109375 17.109375 C6.56550781 16.33078125 6.00992187 15.5521875 5.4375 14.75 C4.84710938 13.94175781 4.25671875 13.13351563 3.6484375 12.30078125 C3.10445313 11.54152344 2.56046875 10.78226563 2 10 C0.67082708 8.33001351 -0.66014102 6.66142513 -2 5 C-0.35 4.67 1.3 4.34 3 4 C2.01 3.34 1.02 2.68 0 2 C0 1.34 0 0.68 0 0 Z " fill="#3D4148" transform="translate(344,97)"/>
<path d="M0 0 C0.66 0.33 1.32 0.66 2 1 C2.33 6.61 2.66 12.22 3 18 C3.33 18 3.66 18 4 18 C4.63454759 26.09048179 4.63454759 26.09048179 2.125 29.6875 C1.42375 30.450625 0.7225 31.21375 0 32 C-1.25556887 35.17921787 -1.25556887 35.17921787 -2 38 C-3.02798248 34.91605255 -2.79978746 33.43506321 -2.2890625 30.32324219 C-1.46805417 23.72466511 -1.57976552 16.98474161 -1.39453125 10.34375 C-1.35714844 9.16039062 -1.31976563 7.97703125 -1.28125 6.7578125 C-1.25095703 5.6764502 -1.22066406 4.59508789 -1.18945312 3.48095703 C-1 1 -1 1 0 0 Z " fill="#222329" transform="translate(373,174)"/>
<path d="M0 0 C0.99 0.33 1.98 0.66 3 1 C3 1.99 3 2.98 3 4 C4.32 4.33 5.64 4.66 7 5 C6.67 5.66 6.34 6.32 6 7 C3.9375 7.625 3.9375 7.625 2 8 C2.94875 8.86625 3.8975 9.7325 4.875 10.625 C8.45746241 14.2001213 11.42708107 18.09015826 14.375 22.1875 C14.81569824 22.79352051 15.25639648 23.39954102 15.71044922 24.02392578 C17.76162498 26.92568673 19.52106979 29.42576159 20 33 C17.86575993 30.98262034 16.26400811 28.97040447 14.6875 26.5 C12.28948902 23.04105083 9.86229321 21.71657476 6 20 C4 17 4 17 4 13 C3.175 12.195625 2.35 11.39125 1.5 10.5625 C-1 8 -1 8 -1.3125 5.1875 C-1.209375 4.465625 -1.10625 3.74375 -1 3 C-0.34 3 0.32 3 1 3 C0.67 2.01 0.34 1.02 0 0 Z " fill="#575C65" transform="translate(341,95)"/>
<path d="M0 0 C3.59838014 1.91501776 5.87088139 4.60503507 8.41796875 7.703125 C8.90330078 8.26386719 9.38863281 8.82460937 9.88867188 9.40234375 C12.82792057 12.91322564 14.56131322 15.94059487 15.73046875 20.453125 C13.42046875 19.793125 11.11046875 19.133125 8.73046875 18.453125 C8.73046875 15.813125 8.73046875 13.173125 8.73046875 10.453125 C7.80234375 10.185 6.87421875 9.916875 5.91796875 9.640625 C2.9353326 8.52944683 1.61181418 7.92857951 -0.26953125 5.453125 C-0.59953125 4.463125 -0.92953125 3.473125 -1.26953125 2.453125 C-1.59953125 3.113125 -1.92953125 3.773125 -2.26953125 4.453125 C-3.25953125 4.123125 -4.24953125 3.793125 -5.26953125 3.453125 C-4.93953125 2.463125 -4.60953125 1.473125 -4.26953125 0.453125 C-2.26953125 -0.546875 -2.26953125 -0.546875 0 0 Z " fill="#686B72" transform="translate(336.26953125,107.546875)"/>
<path d="M0 0 C5.31466422 5.02738507 7.89036599 9.39584622 10.0390625 16.2578125 C11.66967233 20.91101615 13.76285399 25.37331941 15.79296875 29.86328125 C17 33 17 33 17 37 C16.34 37 15.68 37 15 37 C14.62488281 35.96101563 14.24976563 34.92203125 13.86328125 33.8515625 C11.26692049 26.74568816 8.64351142 19.80432311 5.078125 13.11328125 C2.93111841 8.90483718 1.46011503 4.48463903 0 0 Z " fill="#222328" transform="translate(349,118)"/>
<path d="M0 0 C0.66 0.33 1.32 0.66 2 1 C0.71937515 2.7074998 -0.61767557 4.37373596 -2 6 C-2.66 6 -3.32 6 -4 6 C-5.56272189 10.39253773 -5.56272189 10.39253773 -6 15 C-4.35 15.33 -2.7 15.66 -1 16 C-1 16.33 -1 16.66 -1 17 C-5.62 17 -10.24 17 -15 17 C-11.625 11.375 -11.625 11.375 -9.08203125 8.88671875 C-8.55029297 8.36142578 -8.01855469 7.83613281 -7.47070312 7.29492188 C-6.92349609 6.76447266 -6.37628906 6.23402344 -5.8125 5.6875 C-5.25369141 5.13771484 -4.69488281 4.58792969 -4.11914062 4.02148438 C-2.75062588 2.67636304 -1.37593167 1.33753357 0 0 Z " fill="#38393E" transform="translate(170,255)"/>
<path d="M0 0 C3.89581756 -0.02911003 7.791607 -0.04683587 11.6875 -0.0625 C12.79029297 -0.07087891 13.89308594 -0.07925781 15.02929688 -0.08789062 C16.6293457 -0.09272461 16.6293457 -0.09272461 18.26171875 -0.09765625 C19.24100342 -0.10289307 20.22028809 -0.10812988 21.22924805 -0.11352539 C23.92469572 -0.00308543 26.37545639 0.39465834 29 1 C29 1.66 29 2.32 29 3 C25.99686252 4.50156874 23.20932478 4.09281204 19.875 4.0625 C18.59367187 4.05347656 17.31234375 4.04445313 15.9921875 4.03515625 C15.00476563 4.02355469 14.01734375 4.01195313 13 4 C13.66 3.34 14.32 2.68 15 2 C10.05 1.67 5.1 1.34 0 1 C0 0.67 0 0.34 0 0 Z " fill="#34383E" transform="translate(216,76)"/>
<path d="M0 0 C7.80326294 0.39016315 13.92923365 2.75773658 21 6 C18 7 18 7 15.6875 6.0625 C12.57519709 4.83205466 10.31983634 4.70490344 7 5 C6.34 5.66 5.68 6.32 5 7 C1.875 6.625 1.875 6.625 -1 6 C-1 5.01 -1 4.02 -1 3 C-0.34 3 0.32 3 1 3 C0.67 2.01 0.34 1.02 0 0 Z " fill="#3D4248" transform="translate(304,81)"/>
<path d="M0 0 C0.70125 0.12375 1.4025 0.2475 2.125 0.375 C1.07625002 2.99687494 0.47568687 4.16871361 -2 5.625 C-2.61875 5.8725 -3.2375 6.12 -3.875 6.375 C-3.545 7.035 -3.215 7.695 -2.875 8.375 C-4.0625 9.875 -4.0625 9.875 -5.875 11.375 C-7.54111905 11.417721 -9.20882885 11.41563832 -10.875 11.375 C-12.2287208 11.9992293 -13.56641674 12.66097474 -14.875 13.375 C-12.90544032 11.01432209 -10.90113621 8.68728756 -8.875 6.375 C-8.36066406 5.78074219 -7.84632813 5.18648437 -7.31640625 4.57421875 C-3.53731431 0.46138882 -3.53731431 0.46138882 0 0 Z " fill="#46474C" transform="translate(186.875,241.625)"/>
<path d="M0 0 C1.87768555 0.27954102 1.87768555 0.27954102 4 1 C5.11254883 2.55053711 5.11254883 2.55053711 5.95703125 4.52734375 C6.41819336 5.59178711 6.41819336 5.59178711 6.88867188 6.67773438 C7.19353516 7.42345703 7.49839844 8.16917969 7.8125 8.9375 C8.29879883 10.0502832 8.29879883 10.0502832 8.79492188 11.18554688 C9.60309384 13.09435562 10.30956946 15.04551838 11 17 C10.67 17.66 10.34 18.32 10 19 C9.01 19 8.02 19 7 19 C6.66226562 18.04738281 6.32453125 17.09476563 5.9765625 16.11328125 C5.52609304 14.8463359 5.07556933 13.57940984 4.625 12.3125 C3.96371094 10.45044922 3.96371094 10.45044922 3.2890625 8.55078125 C2.24496091 5.67475597 1.15850745 2.8313056 0 0 Z " fill="#313239" transform="translate(359,131)"/>
<path d="M0 0 C0.66 0 1.32 0 2 0 C0.78966092 4.13532517 -0.86111558 7.54348569 -3.078125 11.23046875 C-4.18206825 13.16898144 -4.18206825 13.16898144 -4.75 16.25 C-6.65021959 21.95065878 -10.33863749 26.29131752 -14 31 C-14.66 30.67 -15.32 30.34 -16 30 C-15.43732422 29.34257812 -15.43732422 29.34257812 -14.86328125 28.671875 C-10.91381933 23.77732773 -8.52263142 18.89419902 -6.234375 13.0546875 C-4.42118873 8.56762528 -2.23098269 4.2910816 0 0 Z " fill="#151619" transform="translate(363,235)"/>
<path d="M0 0 C5.94 0 11.88 0 18 0 C18.33 0.99 18.66 1.98 19 3 C12.4 3 5.8 3 -1 3 C-0.67 2.01 -0.34 1.02 0 0 Z " fill="#1F2025" transform="translate(190,237)"/>
<path d="M0 0 C0.33 0 0.66 0 1 0 C1.62599202 7.82490023 -0.67485871 14.60937233 -3 22 C-3.33 22 -3.66 22 -4 22 C-5.86624137 13.53013531 -3.47821591 7.78687091 0 0 Z " fill="#323439" transform="translate(374,202)"/>
<path d="M0 0 C1.18342381 3.55027144 0.50838205 4.60071649 -1.09741211 7.83740234 C-1.41589111 8.44793457 -1.73437012 9.0584668 -2.0625 9.6875 C-2.38033447 10.31092285 -2.69816895 10.9343457 -3.02563477 11.57666016 C-5.55728279 16.42347922 -8.45791559 20.82215685 -12 25 C-13 22 -13 22 -13 19 C-12.2575 18.4225 -11.515 17.845 -10.75 17.25 C-6.58723703 13.84410302 -3.86618751 9.41367195 -3 4 C-2.34 4 -1.68 4 -1 4 C-0.67 2.68 -0.34 1.36 0 0 Z " fill="#17181C" transform="translate(358,232)"/>
<path d="M0 0 C6.32615952 3.39452462 11.59336024 9.34787298 13.69921875 16.3125 C13.79847656 16.869375 13.89773438 17.42625 14 18 C11.86575993 15.98262034 10.26400811 13.97040447 8.6875 11.5 C6.28948902 8.04105083 3.86229321 6.71657476 0 5 C-0.66 4.01 -1.32 3.02 -2 2 C-1.34 1.34 -0.68 0.68 0 0 Z " fill="#4F525A" transform="translate(347,110)"/>
<path d="M0 0 C2.91517292 1.07401108 4.77810176 1.77810176 7 4 C7 4.99 7 5.98 7 7 C9.31 7 11.62 7 14 7 C14.33 7.66 14.66 8.32 15 9 C14.01 10.485 14.01 10.485 13 12 C9.77904972 11.68345833 8.33318274 11.33515036 6.015625 9.00390625 C5.43296875 8.19824219 4.8503125 7.39257812 4.25 6.5625 C3.65703125 5.75941406 3.0640625 4.95632812 2.453125 4.12890625 C1 2 1 2 0 0 Z " fill="#2F3339" transform="translate(345,105)"/>
<path d="M0 0 C-3.64216695 2.29822325 -6.70825007 2.23128602 -10.953125 2.1953125 C-11.61334656 2.1924826 -12.27356812 2.18965271 -12.95379639 2.18673706 C-15.05271897 2.17558415 -17.15120742 2.15048946 -19.25 2.125 C-20.67707715 2.11496384 -22.10416102 2.1058391 -23.53125 2.09765625 C-27.02097328 2.07566111 -30.51044423 2.04116536 -34 2 C-34 1.67 -34 1.34 -34 1 C-33.03175293 0.96241577 -33.03175293 0.96241577 -32.04394531 0.92407227 C-29.11244106 0.80785567 -26.18123783 0.68524558 -23.25 0.5625 C-22.23421875 0.52318359 -21.2184375 0.48386719 -20.171875 0.44335938 C-19.1921875 0.40146484 -18.2125 0.35957031 -17.203125 0.31640625 C-15.85202637 0.26141968 -15.85202637 0.26141968 -14.47363281 0.20532227 C-4.27482209 -0.64122331 -4.27482209 -0.64122331 0 0 Z " fill="#191D22" transform="translate(264,238)"/>
<path d="M0 0 C2 3 2 3 3 6 C3.66 6.66 4.32 7.32 5 8 C5.04166002 10.3329614 5.04166002 12.6670386 5 15 C5.33 15.66 5.66 16.32 6 17 C6.039992 18.99960012 6.04346799 21.00047242 6 23 C5.34 23 4.68 23 4 23 C3.32667007 19.91808296 2.66251141 16.8342592 2 13.75 C1.80921875 12.87730469 1.6184375 12.00460938 1.421875 11.10546875 C1.24140625 10.26113281 1.0609375 9.41679687 0.875 8.546875 C0.70742188 7.77182617 0.53984375 6.99677734 0.3671875 6.19824219 C0 4 0 4 0 0 Z " fill="#585A61" transform="translate(370,148)"/>
<path d="M0 0 C0.99 0.33 1.98 0.66 3 1 C-8.53846154 11 -8.53846154 11 -15 11 C-15 10.34 -15 9.68 -15 9 C-14.25234375 8.60167969 -13.5046875 8.20335937 -12.734375 7.79296875 C-11.74953125 7.26316406 -10.7646875 6.73335938 -9.75 6.1875 C-8.77546875 5.66542969 -7.8009375 5.14335937 -6.796875 4.60546875 C-4.01319645 3.10655851 -4.01319645 3.10655851 -1.828125 1.23828125 C-1.22484375 0.82964844 -0.6215625 0.42101562 0 0 Z " fill="#141416" transform="translate(317,280)"/>
<path d="M0 0 C2.97 0.495 2.97 0.495 6 1 C5.731875 2.03125 5.46375 3.0625 5.1875 4.125 C4.9910727 8.18449759 5.00572884 8.57538732 7.4375 11.4375 C8.283125 12.283125 9.12875 13.12875 10 14 C9.67 14.66 9.34 15.32 9 16 C7.5 14.625 7.5 14.625 6 13 C6 12.34 6 11.68 6 11 C5.01 10.67 4.02 10.34 3 10 C1 7 1 7 1.375 4.3125 C1.58125 3.549375 1.7875 2.78625 2 2 C1.34 2 0.68 2 0 2 C0 1.34 0 0.68 0 0 Z " fill="#6D6F74" transform="translate(306,120)"/>
<path d="M0 0 C9.24 0 18.48 0 28 0 C28 0.33 28 0.66 28 1 C19.75 1 11.5 1 3 1 C3.66 1.99 4.32 2.98 5 4 C4.625 6.1875 4.625 6.1875 4 8 C2 6 2 6 1.875 3.375 C1.91625 2.59125 1.9575 1.8075 2 1 C1.34 0.67 0.68 0.34 0 0 Z " fill="#313237" transform="translate(153,111)"/>
<path d="M0 0 C0.66 0 1.32 0 2 0 C0.49203266 3.77839007 -1.6980128 5.64563017 -4.875 8.125 C-5.73867188 8.80820312 -6.60234375 9.49140625 -7.4921875 10.1953125 C-9.62015241 11.72665173 -11.6184787 12.92554621 -14 14 C-12.48824409 10.16907308 -10.23590073 8.34895899 -7 5.875 C-3.36799396 3.08770843 -3.36799396 3.08770843 0 0 Z " fill="#1A1B1E" transform="translate(334,267)"/>
<path d="M0 0 C0.66 0.33 1.32 0.66 2 1 C0.71937515 2.7074998 -0.61767557 4.37373596 -2 6 C-2.66 6 -3.32 6 -4 6 C-4.04125 6.5775 -4.0825 7.155 -4.125 7.75 C-5.44065958 11.13312465 -7.96552364 12.19222685 -11 14 C-11.66 13.67 -12.32 13.34 -13 13 C-8.71 8.71 -4.42 4.42 0 0 Z " fill="#434449" transform="translate(170,255)"/>
<path d="M0 0 C4.29 0 8.58 0 13 0 C9 5 9 5 6.640625 5.26953125 C5.85171875 5.11871094 5.0628125 4.96789062 4.25 4.8125 C3.45078125 4.67457031 2.6515625 4.53664062 1.828125 4.39453125 C1.22484375 4.26433594 0.6215625 4.13414062 0 4 C0 2.66666667 0 1.33333333 0 0 Z " fill="#24272B" transform="translate(257,234)"/>
<path d="M0 0 C0.80824219 0.37253906 1.61648438 0.74507813 2.44921875 1.12890625 C3.51785156 1.60199219 4.58648437 2.07507813 5.6875 2.5625 C6.74324219 3.03816406 7.79898437 3.51382813 8.88671875 4.00390625 C12.16633893 5.05322011 13.75895539 5.00418265 17 4 C17 5.65 17 7.3 17 9 C11 7 5 5 -1 3 C-0.67 2.01 -0.34 1.02 0 0 Z " fill="#727479" transform="translate(279,110)"/>
<path d="M0 0 C2.65845673 2.37000248 4.11161791 4.81984154 5.6875 8 C6.12449219 8.86625 6.56148438 9.7325 7.01171875 10.625 C8 13 8 13 8 16 C7.34 16 6.68 16 6 16 C5.67 14.02 5.34 12.04 5 10 C3.68 9.67 2.36 9.34 1 9 C1.33 8.34 1.66 7.68 2 7 C1.3507041 5.65812182 0.68268138 4.32520503 0 3 C0 2.01 0 1.02 0 0 Z " fill="#4A4B50" transform="translate(352,128)"/>
<path d="M0 0 C6.42857143 4.14285714 6.42857143 4.14285714 9 7 C6 8 6 8 4.17578125 7.22265625 C2.45052083 6.1484375 0.72526042 5.07421875 -1 4 C-0.67 2.68 -0.34 1.36 0 0 Z " fill="#3D4047" transform="translate(329,94)"/>
<path d="M0 0 C5.80342274 1.48805711 10.17590879 4.59097555 15 8 C14.01 8.33 13.02 8.66 12 9 C9.3359375 7.63671875 9.3359375 7.63671875 6.375 5.6875 C5.39273437 5.05199219 4.41046875 4.41648437 3.3984375 3.76171875 C1 2 1 2 0 0 Z " fill="#282B31" transform="translate(314,90)"/>
<path d="M0 0 C-5.37180176 2.62875405 -10.04492601 3.6083965 -16 4 C-11.55085105 -0.07838654 -5.7906467 -1.80957709 0 0 Z " fill="#191A1E" transform="translate(304,296)"/>
<path d="M0 0 C6.3844245 0.96733705 11.72908169 3.04573476 16 8 C12.11908033 8 9.60326704 6.34682267 6.3125 4.5 C5.70599609 4.16613281 5.09949219 3.83226563 4.47460938 3.48828125 C2.97996769 2.664463 1.48956329 1.83296549 0 1 C0 0.67 0 0.34 0 0 Z " fill="#777B81" transform="translate(314,85)"/>
<path d="M0 0 C2.375 0.625 2.375 0.625 5 2 C6.3125 5.125 6.3125 5.125 7 8 C4.69 7.34 2.38 6.68 0 6 C0 4.02 0 2.04 0 0 Z " fill="#5B5E64" transform="translate(345,120)"/>
<path d="M0 0 C5.94 0 11.88 0 18 0 C18 0.66 18 1.32 18 2 C17.34 2 16.68 2 16 2 C16 2.99 16 3.98 16 5 C15.01 4.67 14.02 4.34 13 4 C13.33 3.01 13.66 2.02 14 1 C9.38 1 4.76 1 0 1 C0 0.67 0 0.34 0 0 Z " fill="#404247" transform="translate(130,81)"/>
<path d="M0 0 C0.33 0.66 0.66 1.32 1 2 C-1.97 6.29 -4.94 10.58 -8 15 C-8.66 14.67 -9.32 14.34 -10 14 C-9.59007812 13.48050781 -9.18015625 12.96101563 -8.7578125 12.42578125 C-5.8834329 8.70559138 -3.61823133 5.45013617 -2 1 C-1.34 0.67 -0.68 0.34 0 0 Z " fill="#2B2C30" transform="translate(357,251)"/>
<path d="M0 0 C1.64846769 0.44876616 3.29373455 0.90930488 4.9375 1.375 C5.85402344 1.63023438 6.77054687 1.88546875 7.71484375 2.1484375 C10 3 10 3 11 5 C8.3125 5.8125 8.3125 5.8125 5 6 C2.125 3.625 2.125 3.625 0 1 C0 0.67 0 0.34 0 0 Z " fill="#3E4349" transform="translate(325,88)"/>
<path d="M0 0 C-0.56371414 3.26954202 -1.49962266 4.82575883 -4 7 C-4.66 6.67 -5.32 6.34 -6 6 C-5.625 3.5625 -5.625 3.5625 -5 1 C-3 0 -3 0 0 0 Z " fill="#212227" transform="translate(183,241)"/>
<path d="M0 0 C2.79651501 1.46817038 3.43411431 2.40553901 4.5 5.3125 C2.52 4.3225 0.54 3.3325 -1.5 2.3125 C-1.83 2.9725 -2.16 3.6325 -2.5 4.3125 C-3.49 3.9825 -4.48 3.6525 -5.5 3.3125 C-5.17 2.3225 -4.84 1.3325 -4.5 0.3125 C-2.5 -0.6875 -2.5 -0.6875 0 0 Z " fill="#6F7278" transform="translate(336.5,107.6875)"/>
<path d="M0 0 C3.2626876 3.08632611 6.02235218 5.93483504 8 10 C7.67 10.66 7.34 11.32 7 12 C3.46730171 8.09543873 1.36144033 5.19822672 0 0 Z " fill="#1A1B21" transform="translate(349,118)"/>
<path d="M0 0 C3.36720387 1.39332574 4.9859524 2.9789286 7 6 C5.35 6.33 3.7 6.66 2 7 C2 6.34 2 5.68 2 5 C1.34 4.34 0.68 3.68 0 3 C0 2.01 0 1.02 0 0 Z " fill="#7E8188" transform="translate(328,101)"/>
<path d="M0 0 C5.75 2.75 5.75 2.75 8 5 C7.67 5.99 7.34 6.98 7 8 C5.8274869 7.04882866 4.66212985 6.08882991 3.5 5.125 C2.8503125 4.59132813 2.200625 4.05765625 1.53125 3.5078125 C1.0259375 3.01023437 0.520625 2.51265625 0 2 C0 1.34 0 0.68 0 0 Z " fill="#303238" transform="translate(350,100)"/>
<path d="M0 0 C2.1875 0.3125 2.1875 0.3125 4 1 C3.67 1.99 3.34 2.98 3 4 C1.0625 4.8125 1.0625 4.8125 -1 5 C-1.66 4.34 -2.32 3.68 -3 3 C-1.75 1.4375 -1.75 1.4375 0 0 Z " fill="#38393E" transform="translate(180,248)"/>
<path d="M0 0 C2.97 0.33 5.94 0.66 9 1 C8.67 2.32 8.34 3.64 8 5 C6.0625 4.625 6.0625 4.625 4 4 C3.67 3.34 3.34 2.68 3 2 C2.01 1.34 1.02 0.68 0 0 Z " fill="#70737A" transform="translate(284,82)"/>
<path d="M0 0 C3 1.8125 3 1.8125 6 4 C6 4.99 6 5.98 6 7 C1.2 4.53846154 1.2 4.53846154 0.1875 1.8125 C0.125625 1.214375 0.06375 0.61625 0 0 Z " fill="#393C44" transform="translate(349,115)"/>
<path d="M0 0 C0.625 1.9375 0.625 1.9375 1 4 C1.33 4.66 1.66 5.32 2 6 C-1.36591866 4.55746343 -3.51047079 2.66735273 -6 0 C-3 -1 -3 -1 0 0 Z " fill="#777B83" transform="translate(336,94)"/>
<path d="M0 0 C0.33 0 0.66 0 1 0 C2.46845421 5.47332932 1.44038726 8.11922548 -1 13 C-2.12758089 9.61725734 -1.81750262 8.23221777 -1.0625 4.8125 C-0.86785156 3.91144531 -0.67320312 3.01039063 -0.47265625 2.08203125 C-0.23869141 1.05142578 -0.23869141 1.05142578 0 0 Z " fill="#191A1F" transform="translate(372,199)"/>
<path d="M0 0 C1.32 0.33 2.64 0.66 4 1 C3.67 1.66 3.34 2.32 3 3 C3.89363605 5.60931266 3.89363605 5.60931266 5 8 C4.34 8.66 3.68 9.32 3 10 C2.01 6.7 1.02 3.4 0 0 Z " fill="#515256" transform="translate(325,150)"/>
<path d="M0 0 C1.98 1.65 3.96 3.3 6 5 C5.01 5.33 4.02 5.66 3 6 C1.68 4.68 0.36 3.36 -1 2 C-0.67 1.34 -0.34 0.68 0 0 Z " fill="#36373F" transform="translate(341,104)"/>
</svg>
